<svg version="1.1" id="Layer_1" xmlns="http://www.w3.org/2000/svg" xmlns:xlink="http://www.w3.org/1999/xlink" x="0px" y="0px"
	 width="100%" viewBox="0 0 417 126" enable-background="new 0 0 417 126" xml:space="preserve">
<path fill="#FFFFFF" opacity="1.000000" stroke="none" 
	d="
M111.000000,1.000000 
	C213.278656,1.000000 315.557312,1.000000 417.917969,1.000000 
	C417.917969,42.922733 417.917969,84.845680 417.917969,127.000000 
	C289.645874,127.000000 161.291595,127.000000 32.576279,126.655838 
	C42.425045,121.624115 51.104984,114.874451 57.575474,105.753601 
	C63.236458,97.773834 68.082794,89.223923 69.349892,79.152893 
	C70.093857,79.831802 70.526466,80.473633 70.978317,81.516525 
	C71.031311,82.741791 70.871307,83.632294 71.127281,84.380478 
	C76.995224,101.532593 87.241455,115.155388 103.290596,124.060600 
	C109.877075,127.715263 114.223305,126.337395 117.687073,119.800514 
	C115.742401,118.862457 113.794060,117.922630 111.817505,116.631989 
	C95.236160,106.913841 84.281075,93.339287 80.101456,74.409592 
	C95.043770,77.933258 103.270935,82.295708 112.732346,92.347191 
	C116.141068,95.968506 118.897850,100.203476 121.960434,104.383194 
	C121.968712,104.607986 122.134087,105.026375 122.109451,105.294708 
	C122.378326,105.753616 122.671837,105.944206 122.981201,106.498047 
	C123.905228,108.637123 124.813393,110.412941 125.884232,112.506851 
	C129.668503,108.768997 134.455719,106.060158 131.575378,100.117004 
	C124.329666,85.166534 112.792694,74.608124 97.639023,68.071930 
	C93.590706,66.325775 89.134010,65.526398 84.864799,64.292358 
	C105.742462,58.992138 120.648239,46.975433 130.791733,28.651403 
	C133.159805,24.373524 132.097153,20.690475 128.981400,17.656448 
	C127.433121,16.148775 124.572510,14.255331 123.716301,18.975546 
	C123.351562,19.357262 123.243309,19.662722 123.052391,20.178921 
	C122.969727,20.389658 122.955093,20.842165 122.706909,20.944263 
	C122.350548,21.353537 122.242386,21.660711 122.051575,22.177256 
	C121.968918,22.386623 121.952957,22.836525 121.705658,22.941105 
	C121.350250,23.353096 121.242149,23.660511 121.051331,24.176960 
	C120.968613,24.385992 120.949638,24.835197 120.633591,24.992226 
	C108.551147,43.400379 90.139809,53.249020 80.455292,52.413311 
	C83.003395,40.330379 88.631660,29.905754 97.909248,21.660082 
	C102.126923,17.911522 106.700432,14.563333 111.474434,11.015188 
	C113.898430,9.943084 115.960533,8.889324 119.153709,7.257566 
	C115.859268,4.729245 113.429634,2.864622 111.000000,1.000000 
M158.948700,76.705330 
	C156.016205,71.563789 149.121933,70.073639 144.159119,73.746925 
	C146.139542,74.362137 147.944855,74.922943 150.000000,75.561363 
	C150.000000,83.787827 149.997650,92.098259 150.001038,100.408684 
	C150.002640,104.347069 151.083252,108.777031 145.459915,110.118935 
	C145.247910,110.169525 145.216415,110.976601 144.927811,112.111221 
	C149.107422,111.917007 152.956116,111.738167 155.869659,111.602776 
	C155.869659,102.556290 155.869659,94.598755 155.869659,86.419586 
	C158.947922,92.920692 161.905579,99.364197 165.067093,105.706062 
	C165.861679,107.299973 167.309952,108.567993 168.457794,109.985779 
	C169.460724,108.668549 170.679688,107.463272 171.430054,106.015175 
	C175.140549,98.854408 178.727127,91.629440 183.000000,83.152229 
	C183.000000,89.889297 183.028320,95.049660 182.990967,100.209541 
	C182.961533,104.273697 184.169067,108.939789 178.323456,110.385727 
	C178.181549,110.420830 178.239975,111.265686 178.234802,111.334633 
	C183.819427,111.334633 189.301575,111.334633 194.783722,111.334633 
	C194.628387,109.892426 194.055603,109.227386 193.515732,109.253105 
	C188.765884,109.479355 188.880112,106.421921 188.958206,103.029900 
	C189.103775,96.706711 188.902832,90.375717 189.036896,84.052025 
	C189.115723,80.333115 189.561935,76.621994 189.854279,72.757057 
	C184.781052,71.060837 183.006973,71.801231 180.770447,76.602997 
	C177.156387,84.362366 173.447906,92.077759 169.549286,100.296654 
	C165.879211,92.362495 162.439148,84.925568 158.948700,76.705330 
M270.576141,92.969887 
	C271.750793,92.111725 272.933441,91.264259 274.098663,90.393494 
	C278.247437,87.293137 278.819794,82.911011 277.703552,78.412491 
	C276.605011,73.985146 272.380005,72.468872 268.646210,72.186043 
	C261.375122,71.635239 254.029617,72.040550 246.716080,72.136353 
	C246.221985,72.142838 245.737366,72.872025 244.370529,73.970619 
	C252.741241,73.752533 250.936737,79.268585 250.984558,83.690826 
	C251.047470,89.509888 251.181091,95.337952 250.930161,101.146858 
	C250.786118,104.481010 249.941269,107.784904 249.313263,111.720627 
	C252.969437,111.975792 257.347687,112.694077 260.653046,111.588959 
	C259.203033,108.173599 257.952972,105.628433 257.067383,102.962212 
	C256.669464,101.764168 256.687103,100.223701 257.074249,99.017746 
	C257.637024,97.264603 258.380127,94.620796 259.625763,94.236946 
	C262.063202,93.485832 264.813324,93.338997 266.166016,97.143913 
	C267.609253,101.203499 270.152863,104.875328 272.248962,108.698433 
	C274.709839,113.186813 281.440643,113.574471 284.544006,109.704590 
	C282.775696,108.956337 280.253937,108.683388 279.198456,107.295410 
	C275.885468,102.938698 273.124451,98.162300 270.576141,92.969887 
M364.691254,100.814392 
	C365.127319,96.439056 366.266998,91.994370 365.844147,87.703674 
	C365.101349,80.166504 361.660217,73.932762 353.659576,73.027985 
	C346.499878,72.218307 339.235901,72.307320 332.014923,72.106682 
	C331.415466,72.090027 330.793365,72.889946 330.098022,73.368050 
	C336.000000,77.125130 336.000000,77.125130 336.000000,84.153107 
	C336.000000,89.138496 336.061157,94.124855 335.981781,99.108978 
	C335.910706,103.573196 337.467621,108.778656 331.174500,110.709496 
	C331.117035,110.727127 331.232117,111.307228 331.307007,111.995667 
	C337.546295,111.995667 343.898224,112.601486 350.076965,111.826538 
	C356.347198,111.040100 361.853760,108.106483 364.691254,100.814392 
M224.032990,53.997066 
	C224.686172,53.669056 225.339371,53.341049 226.604218,52.705883 
	C220.639267,51.442139 220.269821,51.017319 211.034897,35.600136 
	C211.722778,35.210266 212.405060,34.814648 213.095428,34.433712 
	C218.339935,31.539864 220.422714,26.859589 218.981842,21.198172 
	C218.139694,17.889267 213.162506,15.005262 208.267075,15.001225 
	C202.115677,14.996152 195.964127,14.978379 189.812973,15.017790 
	C188.540390,15.025942 187.269257,15.261095 185.997452,15.391626 
	C185.543869,15.987719 185.090286,16.583811 184.636703,17.179901 
	C193.240799,15.599554 191.983673,20.698940 191.995041,24.908281 
	C192.013458,31.724649 192.169449,38.547306 191.920197,45.354599 
	C191.814117,48.251480 190.831909,51.116283 190.350143,53.491402 
	C194.016876,53.491402 198.472122,53.491402 202.292145,53.491402 
	C200.815384,51.343437 199.000931,49.459141 198.140747,47.209900 
	C197.474777,45.468510 197.707108,43.212265 198.085297,41.292286 
	C198.445038,39.465946 199.117783,36.702541 200.348587,36.252117 
	C203.001236,35.281357 205.642517,35.945389 207.119904,39.298187 
	C209.322235,44.296246 212.038605,49.067802 214.569077,53.999695 
	C217.509323,53.999695 220.330841,53.999695 224.032990,53.997066 
M344.526062,19.017962 
	C340.216705,14.489011 334.958862,13.008554 328.976379,14.544739 
	C322.580109,16.187168 317.722076,19.573507 316.998505,26.795271 
	C316.559662,31.175293 315.674225,35.649265 316.156342,39.950211 
	C316.870850,46.323956 319.131897,52.128914 326.410095,54.139194 
	C333.167267,56.005566 339.324921,55.455048 344.356598,50.119865 
	C350.591766,43.508656 350.908081,26.681196 344.526062,19.017962 
M213.731888,111.214691 
	C217.893555,111.240250 222.144226,111.815147 226.195450,111.158913 
	C231.865662,110.240440 235.102203,106.107460 235.925598,100.577148 
	C236.645447,95.742355 237.388840,90.716370 236.811951,85.932816 
	C236.101242,80.039413 233.633209,74.308746 227.047409,72.698715 
	C221.173508,71.262726 214.678818,70.351227 209.901581,75.127983 
	C203.320267,81.708633 203.000900,90.293144 204.460190,98.893471 
	C205.346756,104.118408 207.384781,108.880066 213.731888,111.214691 
M318.052795,96.393501 
	C314.882660,88.335922 311.712494,80.278336 308.528046,72.184464 
	C305.770081,71.820328 303.745239,71.565552 302.680756,75.388161 
	C300.963928,81.553452 298.348480,87.491096 295.828857,93.403984 
	C293.258759,99.435204 290.346375,105.320564 287.541992,111.359924 
	C289.673737,111.359924 293.031860,111.359924 295.613647,111.359924 
	C296.590485,107.601204 297.428070,104.378227 298.306030,101.000000 
	C301.215149,101.000000 303.916077,101.333618 306.502472,100.931206 
	C312.045410,100.068810 314.611359,102.315895 314.663788,107.747246 
	C313.341980,108.801231 312.060699,109.822884 309.889923,111.553795 
	C316.458130,111.553795 321.676392,111.553795 325.671936,111.553795 
	C323.315613,106.759064 320.924377,101.893242 318.052795,96.393501 
M260.736664,49.763954 
	C261.704712,39.311180 262.672791,28.858408 263.650146,18.305077 
	C264.607117,17.686720 265.850800,16.883083 268.091278,15.435354 
	C262.585510,15.435354 258.370636,15.435354 254.983170,15.435354 
	C255.706863,18.109934 256.806671,20.479836 256.911255,22.892868 
	C257.177795,29.044102 257.006805,35.214603 256.998077,41.377373 
	C256.989594,47.399956 254.646240,50.346306 249.455658,50.891327 
	C246.179123,51.235371 240.729187,47.448063 240.356461,43.685154 
	C239.801086,38.078362 240.018280,32.389172 240.019135,26.735060 
	C240.019791,22.386412 238.448502,17.282837 244.802155,15.320015 
	C239.379242,15.320015 233.956329,15.320015 228.256592,15.320015 
	C234.000015,19.961760 234.000015,19.961760 234.000000,27.895914 
	C234.000000,33.059330 233.938187,38.223972 234.040527,43.385357 
	C234.068527,44.797409 234.360535,46.298809 234.920517,47.590504 
	C238.801529,56.542759 252.219650,57.960182 260.736664,49.763954 
M399.940430,107.300674 
	C398.562958,108.604401 397.185455,109.908134 395.698914,111.315094 
	C401.498260,111.315094 406.605408,111.315094 411.840759,111.315094 
	C409.887177,109.047318 407.793762,107.507523 406.918121,105.449593 
	C402.697479,95.530067 398.879761,85.439575 394.711395,75.496826 
	C394.120850,74.088173 392.226410,72.099014 391.225800,72.253914 
	C389.729004,72.485626 387.892242,74.124245 387.251495,75.616013 
	C385.225342,80.333450 384.240814,85.558144 381.832031,90.037361 
	C378.181000,96.826462 378.688995,105.744926 369.984772,111.313255 
	C374.545959,111.313255 377.727356,111.313255 380.907928,111.313255 
	C381.211792,101.728790 381.935211,100.999901 391.119934,100.999992 
	C393.271332,101.000008 395.422699,101.000000 397.214600,101.000000 
	C398.230469,103.062607 399.076324,104.780067 399.940430,107.300674 
M162.404663,50.999641 
	C158.479294,51.240990 155.521622,49.290569 154.085220,45.989296 
	C150.754517,38.334255 150.516693,30.255320 154.327805,22.859680 
	C155.570175,20.448818 159.669403,18.670105 162.695816,18.237368 
	C166.250076,17.729153 168.963608,20.246183 170.084564,24.029074 
	C170.488037,25.390673 171.491928,26.574350 172.221817,27.839224 
	C172.481216,27.698709 172.740601,27.558195 173.000000,27.417681 
	C173.000000,25.421684 173.000000,23.425686 173.000000,21.429688 
	C173.000000,19.329798 173.000000,17.229908 173.000000,15.574274 
	C169.921082,14.978800 167.524017,14.541282 165.138306,14.048657 
	C159.174988,12.817296 152.074768,15.819441 148.533493,20.892263 
	C144.387741,26.831015 144.100388,33.305569 144.918945,40.242649 
	C146.074326,50.034187 155.745483,57.081356 165.373352,54.907448 
	C168.682236,54.160320 172.152771,54.129143 175.855728,53.738590 
	C176.791153,48.354084 170.484909,40.384342 181.052734,35.460339 
	C176.082474,35.460339 172.266907,35.460339 168.544312,35.460339 
	C171.774963,44.253742 170.434174,48.314270 162.404663,50.999641 
M279.000000,21.809845 
	C279.000000,29.464613 279.153137,37.123955 278.924713,44.771900 
	C278.833252,47.833691 277.901520,50.870380 277.389252,53.713329 
	C281.192749,53.713329 285.835571,53.713329 290.478394,53.713329 
	C285.811432,52.408249 285.557587,49.028744 285.958435,45.208237 
	C286.038025,44.449947 285.665985,43.622040 285.414307,42.855068 
	C284.301056,39.462364 285.391724,38.159245 289.065460,37.886581 
	C293.039001,37.591675 297.080139,36.799679 300.851715,35.518089 
	C306.677917,33.538330 306.170685,28.348475 305.991974,23.541183 
	C305.835999,19.345385 303.416565,16.472227 299.528595,16.129454 
	C291.172882,15.392789 282.756195,15.339211 274.362610,15.062952 
	C273.894714,15.047553 273.409851,15.548100 272.625458,15.976354 
	C278.292847,17.946264 278.292847,17.946264 279.000000,21.809845 
z"/>
<path fill="#FFFFFF" opacity="1.000000" stroke="none" 
	d="
M29.000000,127.000000 
	C19.689154,127.000000 10.378309,127.000000 1.033732,127.000000 
	C1.033732,85.123703 1.033732,43.247375 1.033732,1.000000 
	C10.017503,1.000000 19.040092,1.000000 28.428719,1.342329 
	C27.387602,2.422216 25.772247,2.929951 24.632395,3.962567 
	C23.513189,4.976478 22.877167,6.523749 22.029102,7.836957 
	C23.316498,8.567863 24.603895,9.298768 25.971182,10.285170 
	C26.356806,10.648871 26.662539,10.757077 27.178925,10.947916 
	C27.389574,11.030548 27.841898,11.045030 27.944084,11.293230 
	C28.353506,11.649613 28.660742,11.757797 29.178005,11.948729 
	C29.388031,12.031475 29.839151,12.049495 29.994698,12.366476 
	C45.148800,22.055731 55.419357,34.816582 59.465595,54.203609 
	C52.765003,51.552860 46.943821,49.880917 41.746811,47.059330 
	C31.727892,41.619812 24.098146,33.467876 18.040691,23.611658 
	C18.031137,23.388372 17.865364,22.973267 17.889694,22.704395 
	C17.624432,22.233919 17.334839,22.032310 17.037720,21.608418 
	C17.030195,21.386131 16.864815,20.973194 16.889328,20.704531 
	C16.623375,20.236780 16.332911,20.037691 16.035944,19.614407 
	C16.029440,19.390211 15.864054,18.973232 15.856863,18.661341 
	C15.492459,18.129473 15.135245,17.909496 14.579637,17.390091 
	C8.243043,17.469004 5.118019,22.982882 8.255795,28.578354 
	C18.389843,46.650013 33.311703,58.645885 54.383320,63.588348 
	C52.934669,64.244370 52.134556,64.754509 51.260937,64.980614 
	C31.477711,70.100677 17.541035,82.445602 8.004982,100.126060 
	C5.919847,103.992027 9.273171,110.902199 13.484431,111.821518 
	C13.858590,111.903198 14.509731,110.716064 15.286074,110.033920 
	C15.646558,109.644150 15.753199,109.338669 15.941941,108.820534 
	C16.024042,108.607880 16.043346,108.152397 16.292641,108.052887 
	C16.650089,107.646187 16.758240,107.338989 16.948900,106.822586 
	C17.031410,106.613380 17.047262,106.163887 17.294632,106.059212 
	C17.650158,105.646980 17.758312,105.339424 17.949120,104.823090 
	C18.031771,104.614311 18.050648,104.165627 18.365479,103.998573 
	C27.892523,88.414810 40.916508,78.193771 59.293980,74.220802 
	C56.957474,87.610985 50.519238,98.242981 40.837547,106.958656 
	C36.794712,110.598099 32.222031,113.648949 27.519371,116.989258 
	C25.433201,118.170296 23.717924,119.329483 22.002644,120.488670 
	C23.741402,122.230095 25.462034,123.990250 27.230127,125.701370 
	C27.751087,126.205536 28.406309,126.570984 29.000000,127.000000 
z"/>
<path fill="#FFFFFF" opacity="1.000000" stroke="none" 
	d="
M32.000000,1.000000 
	C56.687561,1.000000 81.375122,1.000000 106.425545,1.344958 
	C96.608521,5.587611 89.107262,13.182601 82.593819,21.267454 
	C76.707840,28.573475 71.930870,37.030502 70.704636,46.966686 
	C70.348557,47.360577 70.248535,47.669884 70.052368,48.231644 
	C69.652527,48.616074 69.348824,48.748051 69.025085,48.470867 
	C67.248718,35.447357 60.869873,24.950808 52.326061,16.171099 
	C46.503044,10.187313 38.840199,5.993931 32.000000,1.000000 
z"/>
<path fill="#323334" opacity="1.000000" stroke="none" 
	d="
M29.375000,127.000000 
	C28.406309,126.570984 27.751087,126.205536 27.230127,125.701370 
	C25.462034,123.990250 23.741402,122.230095 22.002644,120.488670 
	C23.717924,119.329483 25.433201,118.170296 27.903353,116.996368 
	C38.954937,113.501427 47.519726,107.377602 54.731941,99.397369 
	C61.781937,91.596619 66.110229,82.365532 68.264740,72.181686 
	C68.671135,72.898537 68.835419,73.449722 68.999817,74.375458 
	C68.999756,75.499084 68.999573,76.248169 69.001846,77.350433 
	C69.015717,78.174339 69.027130,78.645081 69.038544,79.115814 
	C68.082794,89.223923 63.236458,97.773834 57.575474,105.753601 
	C51.104984,114.874451 42.425045,121.624115 32.107620,126.655838 
	C31.250000,127.000000 30.500000,127.000000 29.375000,127.000000 
z"/>
<path fill="#323334" opacity="1.000000" stroke="none" 
	d="
M69.045128,48.880028 
	C69.348824,48.748051 69.652527,48.616074 70.249603,48.100960 
	C70.771599,47.483936 70.910835,47.205360 70.960693,46.882103 
	C71.930870,37.030502 76.707840,28.573475 82.593819,21.267454 
	C89.107262,13.182601 96.608521,5.587611 106.894203,1.344958 
	C108.066673,1.000000 109.133339,1.000000 110.600006,1.000000 
	C113.429634,2.864622 115.859268,4.729245 119.153709,7.257566 
	C115.960533,8.889324 113.898430,9.943084 111.090195,11.006691 
	C100.662659,13.858843 93.107956,20.071701 86.141258,26.924742 
	C78.279625,34.658119 73.886894,44.471607 70.743301,54.837879 
	C70.000641,54.122921 69.500168,53.560745 68.999878,52.586674 
	C69.015091,51.076527 69.030106,49.978275 69.045128,48.880028 
z"/>
<path fill="#323335" opacity="1.000000" stroke="none" 
	d="
M69.025085,48.470867 
	C69.030106,49.978275 69.015091,51.076527 68.980316,52.882095 
	C68.647766,54.054901 68.334969,54.520386 67.971725,54.604504 
	C65.271126,42.584053 59.692654,32.473545 50.855148,24.553005 
	C44.760452,19.090685 38.432419,13.532884 29.839151,12.049495 
	C29.839151,12.049495 29.388031,12.031475 29.050644,11.742810 
	C28.454462,11.250360 28.164009,11.113989 27.841898,11.045030 
	C27.841898,11.045030 27.389574,11.030548 27.058697,10.744362 
	C26.481945,10.250997 26.203102,10.108163 25.891293,10.029675 
	C24.603895,9.298768 23.316498,8.567863 22.029102,7.836957 
	C22.877167,6.523749 23.513189,4.976478 24.632395,3.962567 
	C25.772247,2.929951 27.387602,2.422216 28.897377,1.342329 
	C29.750000,1.000000 30.500000,1.000000 31.625000,1.000000 
	C38.840199,5.993931 46.503044,10.187313 52.326061,16.171099 
	C60.869873,24.950808 67.248718,35.447357 69.025085,48.470867 
z"/>
<path fill="#323334" opacity="1.000000" stroke="none" 
	d="
M15.864054,18.973232 
	C15.864054,18.973232 16.029440,19.390211 16.114094,19.844952 
	C16.317038,20.626774 16.539059,20.851274 16.864815,20.973194 
	C16.864815,20.973194 17.030195,21.386131 17.112751,21.841417 
	C17.313723,22.626143 17.537077,22.851664 17.865364,22.973267 
	C17.865364,22.973267 18.031137,23.388372 18.016735,24.012314 
	C18.261303,25.914236 18.232512,27.346495 18.822535,28.446980 
	C27.262070,44.188076 39.096642,56.161442 56.688763,61.224979 
	C60.246136,62.248898 64.232193,61.783440 68.389938,62.002876 
	C69.497787,62.002594 70.236298,62.004066 71.236595,62.289417 
	C72.304855,62.705971 73.137970,63.042618 73.913895,62.941299 
	C90.569809,60.766510 103.791550,52.552422 113.693642,39.256725 
	C116.859428,35.005974 118.572105,29.673004 120.949638,24.835197 
	C120.949638,24.835197 120.968613,24.385992 121.258156,24.049410 
	C121.753586,23.453476 121.888672,23.161375 121.952957,22.836525 
	C121.952957,22.836525 121.968918,22.386623 122.257385,22.049881 
	C122.749641,21.454479 122.886047,21.164154 122.955093,20.842165 
	C122.955093,20.842165 122.969727,20.389658 123.254875,20.059294 
	C123.744820,19.483973 123.889076,19.207424 123.972778,18.899288 
	C124.572510,14.255331 127.433121,16.148775 128.981400,17.656448 
	C132.097153,20.690475 133.159805,24.373524 130.791733,28.651403 
	C120.648239,46.975433 105.742462,58.992138 84.864799,64.292358 
	C89.134010,65.526398 93.590706,66.325775 97.639023,68.071930 
	C112.792694,74.608124 124.329666,85.166534 131.575378,100.117004 
	C134.455719,106.060158 129.668503,108.768997 125.884232,112.506851 
	C124.813393,110.412941 123.905228,108.637123 122.900055,106.271622 
	C122.679810,105.361633 122.456825,105.143112 122.134087,105.026375 
	C122.134087,105.026375 121.968712,104.607986 121.975540,103.996071 
	C115.536018,83.959572 93.915520,64.525429 70.757339,65.110565 
	C69.996262,65.475044 69.498436,65.737297 68.728416,65.710693 
	C66.344009,65.430641 64.189537,65.169151 62.126385,65.491753 
	C47.857666,67.722771 36.490284,75.194649 27.602100,86.152588 
	C23.354504,91.389305 18.389339,96.669785 18.050648,104.165627 
	C18.050648,104.165627 18.031771,104.614311 17.742088,104.950607 
	C17.246277,105.546394 17.111229,105.838722 17.047262,106.163887 
	C17.047262,106.163887 17.031410,106.613380 16.742863,106.948853 
	C16.248846,107.541260 16.111858,107.830620 16.043346,108.152397 
	C16.043346,108.152397 16.024042,108.607880 15.740516,108.943825 
	C15.255526,109.528915 15.113940,109.808395 15.032231,110.118217 
	C14.509731,110.716064 13.858590,111.903198 13.484431,111.821518 
	C9.273171,110.902199 5.919847,103.992027 8.004982,100.126060 
	C17.541035,82.445602 31.477711,70.100677 51.260937,64.980614 
	C52.134556,64.754509 52.934669,64.244370 54.383320,63.588348 
	C33.311703,58.645885 18.389843,46.650013 8.255795,28.578354 
	C5.118019,22.982882 8.243043,17.469004 14.733331,17.638130 
	C15.344965,18.448141 15.604509,18.710688 15.864054,18.973232 
z"/>
<path fill="#333436" opacity="1.000000" stroke="none" 
	d="
M158.973892,77.096985 
	C162.439148,84.925568 165.879211,92.362495 169.549286,100.296654 
	C173.447906,92.077759 177.156387,84.362366 180.770447,76.602997 
	C183.006973,71.801231 184.781052,71.060837 189.854279,72.757057 
	C189.561935,76.621994 189.115723,80.333115 189.036896,84.052025 
	C188.902832,90.375717 189.103775,96.706711 188.958206,103.029900 
	C188.880112,106.421921 188.765884,109.479355 193.515732,109.253105 
	C194.055603,109.227386 194.628387,109.892426 194.783722,111.334633 
	C189.301575,111.334633 183.819427,111.334633 178.234802,111.334633 
	C178.239975,111.265686 178.181549,110.420830 178.323456,110.385727 
	C184.169067,108.939789 182.961533,104.273697 182.990967,100.209541 
	C183.028320,95.049660 183.000000,89.889297 183.000000,83.152229 
	C178.727127,91.629440 175.140549,98.854408 171.430054,106.015175 
	C170.679688,107.463272 169.460724,108.668549 168.457794,109.985779 
	C167.309952,108.567993 165.861679,107.299973 165.067093,105.706062 
	C161.905579,99.364197 158.947922,92.920692 155.869659,86.419586 
	C155.869659,94.598755 155.869659,102.556290 155.869659,111.602776 
	C152.956116,111.738167 149.107422,111.917007 144.927811,112.111221 
	C145.216415,110.976601 145.247910,110.169525 145.459915,110.118935 
	C151.083252,108.777031 150.002640,104.347069 150.001038,100.408684 
	C149.997650,92.098259 150.000000,83.787827 150.000000,75.561363 
	C147.944855,74.922943 146.139542,74.362137 144.159119,73.746925 
	C149.121933,70.073639 156.016205,71.563789 158.973892,77.096985 
z"/>
<path fill="#333436" opacity="1.000000" stroke="none" 
	d="
M270.362885,93.259171 
	C273.124451,98.162300 275.885468,102.938698 279.198456,107.295410 
	C280.253937,108.683388 282.775696,108.956337 284.544006,109.704590 
	C281.440643,113.574471 274.709839,113.186813 272.248962,108.698433 
	C270.152863,104.875328 267.609253,101.203499 266.166016,97.143913 
	C264.813324,93.338997 262.063202,93.485832 259.625763,94.236946 
	C258.380127,94.620796 257.637024,97.264603 257.074249,99.017746 
	C256.687103,100.223701 256.669464,101.764168 257.067383,102.962212 
	C257.952972,105.628433 259.203033,108.173599 260.653046,111.588959 
	C257.347687,112.694077 252.969437,111.975792 249.313263,111.720627 
	C249.941269,107.784904 250.786118,104.481010 250.930161,101.146858 
	C251.181091,95.337952 251.047470,89.509888 250.984558,83.690826 
	C250.936737,79.268585 252.741241,73.752533 244.370529,73.970619 
	C245.737366,72.872025 246.221985,72.142838 246.716080,72.136353 
	C254.029617,72.040550 261.375122,71.635239 268.646210,72.186043 
	C272.380005,72.468872 276.605011,73.985146 277.703552,78.412491 
	C278.819794,82.911011 278.247437,87.293137 274.098663,90.393494 
	C272.933441,91.264259 271.750793,92.111725 270.362885,93.259171 
M260.663208,89.999435 
	C261.991669,89.999115 263.326599,90.084007 264.647400,89.983398 
	C269.750092,89.594727 273.136169,83.411293 270.536896,79.083557 
	C267.820984,74.561623 263.217804,75.828659 259.350494,76.322403 
	C258.332062,76.452431 257.048706,80.211967 257.178802,82.221146 
	C257.349976,84.864052 254.788361,88.854561 260.663208,89.999435 
z"/>
<path fill="#1D1D1C" opacity="1.000000" stroke="none" 
	d="
M71.020584,65.008347 
	C93.915520,64.525429 115.536018,83.959572 121.967262,103.771278 
	C118.897850,100.203476 116.141068,95.968506 112.732346,92.347191 
	C103.270935,82.295708 95.043770,77.933258 80.101456,74.409592 
	C84.281075,93.339287 95.236160,106.913841 111.449631,116.631958 
	C90.126366,108.776779 76.391899,94.107613 71.005051,71.561165 
	C71.011925,69.085579 71.016251,67.046967 71.020584,65.008347 
z"/>
<path fill="#1D1D1B" opacity="1.000000" stroke="none" 
	d="
M120.633591,24.992226 
	C118.572105,29.673004 116.859428,35.005974 113.693642,39.256725 
	C103.791550,52.552422 90.569809,60.766510 73.913895,62.941299 
	C73.137970,63.042618 72.304855,62.705971 71.246223,61.851082 
	C70.991211,59.082798 70.988342,57.036732 70.985481,54.990662 
	C73.886894,44.471607 78.279625,34.658119 86.141258,26.924742 
	C93.107956,20.071701 100.662659,13.858843 110.728287,11.025035 
	C106.700432,14.563333 102.126923,17.911522 97.909248,21.660082 
	C88.631660,29.905754 83.003395,40.330379 80.455292,52.413311 
	C90.139809,53.249020 108.551147,43.400379 120.633591,24.992226 
z"/>
<path fill="#333436" opacity="1.000000" stroke="none" 
	d="
M364.408325,101.103004 
	C361.853760,108.106483 356.347198,111.040100 350.076965,111.826538 
	C343.898224,112.601486 337.546295,111.995667 331.307007,111.995667 
	C331.232117,111.307228 331.117035,110.727127 331.174500,110.709496 
	C337.467621,108.778656 335.910706,103.573196 335.981781,99.108978 
	C336.061157,94.124855 336.000000,89.138496 336.000000,84.153107 
	C336.000000,77.125130 336.000000,77.125130 330.098022,73.368050 
	C330.793365,72.889946 331.415466,72.090027 332.014923,72.106682 
	C339.235901,72.307320 346.499878,72.218307 353.659576,73.027985 
	C361.660217,73.932762 365.101349,80.166504 365.844147,87.703674 
	C366.266998,91.994370 365.127319,96.439056 364.408325,101.103004 
M356.633636,80.124939 
	C355.222015,79.024521 353.947113,77.646660 352.374939,76.872108 
	C345.857971,73.661392 342.000702,75.949722 342.000092,82.864754 
	C341.999542,89.349388 342.143890,95.838341 341.949799,102.317162 
	C341.818878,106.689285 343.795776,108.596909 347.910034,107.913620 
	C350.032867,107.561058 352.377777,106.750771 353.981537,105.391350 
	C359.644073,100.591614 360.758118,90.219093 356.633636,80.124939 
z"/>
<path fill="#333436" opacity="1.000000" stroke="none" 
	d="
M223.592667,53.998383 
	C220.330841,53.999695 217.509323,53.999695 214.569077,53.999695 
	C212.038605,49.067802 209.322235,44.296246 207.119904,39.298187 
	C205.642517,35.945389 203.001236,35.281357 200.348587,36.252117 
	C199.117783,36.702541 198.445038,39.465946 198.085297,41.292286 
	C197.707108,43.212265 197.474777,45.468510 198.140747,47.209900 
	C199.000931,49.459141 200.815384,51.343437 202.292145,53.491402 
	C198.472122,53.491402 194.016876,53.491402 190.350143,53.491402 
	C190.831909,51.116283 191.814117,48.251480 191.920197,45.354599 
	C192.169449,38.547306 192.013458,31.724649 191.995041,24.908281 
	C191.983673,20.698940 193.240799,15.599554 184.636703,17.179901 
	C185.090286,16.583811 185.543869,15.987719 185.997452,15.391626 
	C187.269257,15.261095 188.540390,15.025942 189.812973,15.017790 
	C195.964127,14.978379 202.115677,14.996152 208.267075,15.001225 
	C213.162506,15.005262 218.139694,17.889267 218.981842,21.198172 
	C220.422714,26.859589 218.339935,31.539864 213.095428,34.433712 
	C212.405060,34.814648 211.722778,35.210266 211.034897,35.600136 
	C220.269821,51.017319 220.639267,51.442139 226.604218,52.705883 
	C225.339371,53.341049 224.686172,53.669056 223.592667,53.998383 
M211.998352,27.562191 
	C213.226303,20.839655 210.175385,17.488750 202.852036,18.137413 
	C201.164719,18.286865 198.333069,20.080772 198.263840,21.250277 
	C198.040848,25.017117 198.852814,28.846905 199.317444,32.646095 
	C199.334518,32.785831 199.888000,32.874069 200.198456,32.961700 
	C204.496994,34.175018 209.324509,32.276161 211.998352,27.562191 
z"/>
<path fill="#333436" opacity="1.000000" stroke="none" 
	d="
M344.786499,19.293144 
	C350.908081,26.681196 350.591766,43.508656 344.356598,50.119865 
	C339.324921,55.455048 333.167267,56.005566 326.410095,54.139194 
	C319.131897,52.128914 316.870850,46.323956 316.156342,39.950211 
	C315.674225,35.649265 316.559662,31.175293 316.998505,26.795271 
	C317.722076,19.573507 322.580109,16.187168 328.976379,14.544739 
	C334.958862,13.008554 340.216705,14.489011 344.786499,19.293144 
M341.999847,40.099556 
	C341.593658,34.874664 341.799896,29.501583 340.583160,24.472803 
	C339.647125,20.604210 336.449921,17.945000 331.800140,17.967339 
	C327.160858,17.989626 325.069397,21.055857 324.073486,24.740976 
	C322.119354,31.971884 321.999542,39.304726 325.116577,46.316338 
	C327.410797,51.477005 334.223785,53.127274 338.104340,49.127762 
	C340.087799,47.083523 340.742554,43.750164 341.999847,40.099556 
z"/>
<path fill="#333436" opacity="1.000000" stroke="none" 
	d="
M213.336823,111.105637 
	C207.384781,108.880066 205.346756,104.118408 204.460190,98.893471 
	C203.000900,90.293144 203.320267,81.708633 209.901581,75.127983 
	C214.678818,70.351227 221.173508,71.262726 227.047409,72.698715 
	C233.633209,74.308746 236.101242,80.039413 236.811951,85.932816 
	C237.388840,90.716370 236.645447,95.742355 235.925598,100.577148 
	C235.102203,106.107460 231.865662,110.240440 226.195450,111.158913 
	C222.144226,111.815147 217.893555,111.240250 213.336823,111.105637 
M229.157166,83.647621 
	C228.074493,77.592323 224.838135,75.266319 220.065475,75.190659 
	C215.525589,75.118675 212.546478,78.561623 212.057571,83.015724 
	C211.475388,88.319756 210.994171,93.804596 211.719696,99.037735 
	C212.551453,105.037285 217.507736,109.700600 221.082489,108.884003 
	C225.781296,107.810654 230.416779,104.439819 230.019241,96.217247 
	C229.826874,92.238274 229.838120,88.249466 229.157166,83.647621 
z"/>
<path fill="#333436" opacity="1.000000" stroke="none" 
	d="
M318.292969,96.710464 
	C320.924377,101.893242 323.315613,106.759064 325.671936,111.553795 
	C321.676392,111.553795 316.458130,111.553795 309.889923,111.553795 
	C312.060699,109.822884 313.341980,108.801231 314.663788,107.747246 
	C314.611359,102.315895 312.045410,100.068810 306.502472,100.931206 
	C303.916077,101.333618 301.215149,101.000000 298.306030,101.000000 
	C297.428070,104.378227 296.590485,107.601204 295.613647,111.359924 
	C293.031860,111.359924 289.673737,111.359924 287.541992,111.359924 
	C290.346375,105.320564 293.258759,99.435204 295.828857,93.403984 
	C298.348480,87.491096 300.963928,81.553452 302.680756,75.388161 
	C303.745239,71.565552 305.770081,71.820328 308.528046,72.184464 
	C311.712494,80.278336 314.882660,88.335922 318.292969,96.710464 
M300.997009,93.565018 
	C300.682404,94.586884 300.367798,95.608749 300.045258,96.656319 
	C303.833862,96.656319 307.340210,96.656319 311.137787,96.656319 
	C309.194702,91.323196 307.398651,86.393600 305.411957,80.940781 
	C303.866516,85.116707 302.457489,88.924065 300.997009,93.565018 
z"/>
<path fill="#333436" opacity="1.000000" stroke="none" 
	d="
M260.437500,50.035858 
	C252.219650,57.960182 238.801529,56.542759 234.920517,47.590504 
	C234.360535,46.298809 234.068527,44.797409 234.040527,43.385357 
	C233.938187,38.223972 234.000000,33.059330 234.000000,27.895914 
	C234.000015,19.961760 234.000015,19.961760 228.256592,15.320015 
	C233.956329,15.320015 239.379242,15.320015 244.802155,15.320015 
	C238.448502,17.282837 240.019791,22.386412 240.019135,26.735060 
	C240.018280,32.389172 239.801086,38.078362 240.356461,43.685154 
	C240.729187,47.448063 246.179123,51.235371 249.455658,50.891327 
	C254.646240,50.346306 256.989594,47.399956 256.998077,41.377373 
	C257.006805,35.214603 257.177795,29.044102 256.911255,22.892868 
	C256.806671,20.479836 255.706863,18.109934 254.983170,15.435354 
	C258.370636,15.435354 262.585510,15.435354 268.091278,15.435354 
	C265.850800,16.883083 264.607117,17.686720 263.650146,18.305077 
	C262.672791,28.858408 261.704712,39.311180 260.437500,50.035858 
z"/>
<path fill="#333436" opacity="1.000000" stroke="none" 
	d="
M399.931305,106.899101 
	C399.076324,104.780067 398.230469,103.062607 397.214600,101.000000 
	C395.422699,101.000000 393.271332,101.000008 391.119934,100.999992 
	C381.935211,100.999901 381.211792,101.728790 380.907928,111.313255 
	C377.727356,111.313255 374.545959,111.313255 369.984772,111.313255 
	C378.688995,105.744926 378.181000,96.826462 381.832031,90.037361 
	C384.240814,85.558144 385.225342,80.333450 387.251495,75.616013 
	C387.892242,74.124245 389.729004,72.485626 391.225800,72.253914 
	C392.226410,72.099014 394.120850,74.088173 394.711395,75.496826 
	C398.879761,85.439575 402.697479,95.530067 406.918121,105.449593 
	C407.793762,107.507523 409.887177,109.047318 411.840759,111.315094 
	C406.605408,111.315094 401.498260,111.315094 395.698914,111.315094 
	C397.185455,109.908134 398.562958,108.604401 399.931305,106.899101 
M387.784821,96.999641 
	C390.478760,96.999641 393.172668,96.999641 396.263458,96.999641 
	C394.217743,91.561378 392.457214,86.881241 390.164856,80.787292 
	C388.157257,86.515396 386.553406,90.963501 385.123199,95.466766 
	C385.030090,95.759956 386.270264,96.476570 387.784821,96.999641 
z"/>
<path fill="#333436" opacity="1.000000" stroke="none" 
	d="
M162.813934,50.998180 
	C170.434174,48.314270 171.774963,44.253742 168.544312,35.460339 
	C172.266907,35.460339 176.082474,35.460339 181.052734,35.460339 
	C170.484909,40.384342 176.791153,48.354084 175.855728,53.738590 
	C172.152771,54.129143 168.682236,54.160320 165.373352,54.907448 
	C155.745483,57.081356 146.074326,50.034187 144.918945,40.242649 
	C144.100388,33.305569 144.387741,26.831015 148.533493,20.892263 
	C152.074768,15.819441 159.174988,12.817296 165.138306,14.048657 
	C167.524017,14.541282 169.921082,14.978800 173.000000,15.574274 
	C173.000000,17.229908 173.000000,19.329798 173.000000,21.429688 
	C173.000000,23.425686 173.000000,25.421684 173.000000,27.417681 
	C172.740601,27.558195 172.481216,27.698709 172.221817,27.839224 
	C171.491928,26.574350 170.488037,25.390673 170.084564,24.029074 
	C168.963608,20.246183 166.250076,17.729153 162.695816,18.237368 
	C159.669403,18.670105 155.570175,20.448818 154.327805,22.859680 
	C150.516693,30.255320 150.754517,38.334255 154.085220,45.989296 
	C155.521622,49.290569 158.479294,51.240990 162.813934,50.998180 
z"/>
<path fill="#333436" opacity="1.000000" stroke="none" 
	d="
M278.999878,21.348412 
	C278.292847,17.946264 278.292847,17.946264 272.625458,15.976354 
	C273.409851,15.548100 273.894714,15.047553 274.362610,15.062952 
	C282.756195,15.339211 291.172882,15.392789 299.528595,16.129454 
	C303.416565,16.472227 305.835999,19.345385 305.991974,23.541183 
	C306.170685,28.348475 306.677917,33.538330 300.851715,35.518089 
	C297.080139,36.799679 293.039001,37.591675 289.065460,37.886581 
	C285.391724,38.159245 284.301056,39.462364 285.414307,42.855068 
	C285.665985,43.622040 286.038025,44.449947 285.958435,45.208237 
	C285.557587,49.028744 285.811432,52.408249 290.478394,53.713329 
	C285.835571,53.713329 281.192749,53.713329 277.389252,53.713329 
	C277.901520,50.870380 278.833252,47.833691 278.924713,44.771900 
	C279.153137,37.123955 279.000000,29.464613 278.999878,21.348412 
M289.422394,34.937252 
	C290.162445,34.626392 290.878754,34.134220 291.646362,34.033516 
	C297.502258,33.265289 300.585266,30.095438 299.981415,25.357954 
	C299.445923,21.157053 294.696564,17.683128 289.091736,18.085112 
	C283.402161,18.493170 285.334930,23.191919 285.017609,26.508430 
	C284.907318,27.661108 284.612701,29.030079 285.082489,29.954601 
	C286.000458,31.761000 287.397278,33.324032 289.422394,34.937252 
z"/>
<path fill="#323335" opacity="1.000000" stroke="none" 
	d="
M71.002495,71.998131 
	C76.391899,94.107613 90.126366,108.776779 111.477844,116.982773 
	C113.794060,117.922630 115.742401,118.862457 117.687073,119.800514 
	C114.223305,126.337395 109.877075,127.715263 103.290596,124.060600 
	C87.241455,115.155388 76.995224,101.532593 71.127281,84.380478 
	C70.871307,83.632294 71.031311,82.741791 70.989243,81.132233 
	C70.320412,79.230339 69.659904,78.113800 68.999390,76.997253 
	C68.999573,76.248169 68.999756,75.499084 69.244232,74.221619 
	C69.993187,73.128204 70.497841,72.563171 71.002495,71.998131 
z"/>
<path fill="#2E2E2F" opacity="1.000000" stroke="none" 
	d="
M69.001846,77.350433 
	C69.659904,78.113800 70.320412,79.230339 70.970001,80.731178 
	C70.526466,80.473633 70.093857,79.831802 69.349892,79.152893 
	C69.027130,78.645081 69.015717,78.174339 69.001846,77.350433 
z"/>
<path fill="#1D1D1B" opacity="1.000000" stroke="none" 
	d="
M121.705658,22.941105 
	C121.888672,23.161375 121.753586,23.453476 121.340866,23.840378 
	C121.242149,23.660511 121.350250,23.353096 121.705658,22.941105 
z"/>
<path fill="#1D1D1B" opacity="1.000000" stroke="none" 
	d="
M122.706909,20.944263 
	C122.886047,21.164154 122.749641,21.454479 122.340042,21.840515 
	C122.242386,21.660711 122.350548,21.353537 122.706909,20.944263 
z"/>
<path fill="#1D1D1B" opacity="1.000000" stroke="none" 
	d="
M123.716301,18.975546 
	C123.889076,19.207424 123.744820,19.483973 123.337540,19.848557 
	C123.243309,19.662722 123.351562,19.357262 123.716301,18.975546 
z"/>
<path fill="#1D1D1C" opacity="1.000000" stroke="none" 
	d="
M122.109451,105.294708 
	C122.456825,105.143112 122.679810,105.361633 122.884193,105.908371 
	C122.671837,105.944206 122.378326,105.753616 122.109451,105.294708 
z"/>
<path fill="#1D1D1C" opacity="1.000000" stroke="none" 
	d="
M18.365479,103.998573 
	C18.389339,96.669785 23.354504,91.389305 27.602100,86.152588 
	C36.490284,75.194649 47.857666,67.722771 62.126385,65.491753 
	C64.189537,65.169151 66.344009,65.430641 68.718811,66.095490 
	C68.661812,68.518097 68.342224,70.267059 68.022629,72.016022 
	C66.110229,82.365532 61.781937,91.596619 54.731941,99.397369 
	C47.519726,107.377602 38.954937,113.501427 28.274242,116.974525 
	C32.222031,113.648949 36.794712,110.598099 40.837547,106.958656 
	C50.519238,98.242981 56.957474,87.610985 59.293980,74.220802 
	C40.916508,78.193771 27.892523,88.414810 18.365479,103.998573 
z"/>
<path fill="#1D1D1B" opacity="1.000000" stroke="none" 
	d="
M68.020615,62.004627 
	C64.232193,61.783440 60.246136,62.248898 56.688763,61.224979 
	C39.096642,56.161442 27.262070,44.188076 18.822535,28.446980 
	C18.232512,27.346495 18.261303,25.914236 18.026291,24.235600 
	C24.098146,33.467876 31.727892,41.619812 41.746811,47.059330 
	C46.943821,49.880917 52.765003,51.552860 59.465595,54.203609 
	C55.419357,34.816582 45.148800,22.055731 29.994698,12.366476 
	C38.432419,13.532884 44.760452,19.090685 50.855148,24.553005 
	C59.692654,32.473545 65.271126,42.584053 67.963684,55.043861 
	C68.010933,57.911266 68.015778,59.957947 68.020615,62.004627 
z"/>
<path fill="#1D1D1B" opacity="1.000000" stroke="none" 
	d="
M17.889694,22.704395 
	C17.537077,22.851664 17.313723,22.626143 17.120275,22.063702 
	C17.334839,22.032310 17.624432,22.233919 17.889694,22.704395 
z"/>
<path fill="#1D1D1B" opacity="1.000000" stroke="none" 
	d="
M16.889328,20.704531 
	C16.539059,20.851274 16.317038,20.626774 16.120598,20.069145 
	C16.332911,20.037691 16.623375,20.236780 16.889328,20.704531 
z"/>
<path fill="#1D1D1B" opacity="1.000000" stroke="none" 
	d="
M15.856863,18.661341 
	C15.604509,18.710688 15.344965,18.448141 14.931726,17.937557 
	C15.135245,17.909496 15.492459,18.129473 15.856863,18.661341 
z"/>
<path fill="#1D1D1B" opacity="1.000000" stroke="none" 
	d="
M27.944084,11.293230 
	C28.164009,11.113989 28.454462,11.250360 28.840616,11.660063 
	C28.660742,11.757797 28.353506,11.649613 27.944084,11.293230 
z"/>
<path fill="#1D1D1B" opacity="1.000000" stroke="none" 
	d="
M25.971182,10.285170 
	C26.203102,10.108163 26.481945,10.250997 26.848045,10.661730 
	C26.662539,10.757077 26.356806,10.648871 25.971182,10.285170 
z"/>
<path fill="#1D1D1C" opacity="1.000000" stroke="none" 
	d="
M17.294632,106.059212 
	C17.111229,105.838722 17.246277,105.546394 17.659437,105.159393 
	C17.758312,105.339424 17.650158,105.646980 17.294632,106.059212 
z"/>
<path fill="#1D1D1C" opacity="1.000000" stroke="none" 
	d="
M16.292641,108.052887 
	C16.111858,107.830620 16.248846,107.541260 16.660351,107.158066 
	C16.758240,107.338989 16.650089,107.646187 16.292641,108.052887 
z"/>
<path fill="#1D1D1C" opacity="1.000000" stroke="none" 
	d="
M15.286075,110.033920 
	C15.113940,109.808395 15.255526,109.528915 15.658415,109.156479 
	C15.753199,109.338669 15.646558,109.644150 15.286075,110.033920 
z"/>
<path fill="#2F2F31" opacity="1.000000" stroke="none" 
	d="
M70.704636,46.966686 
	C70.910835,47.205360 70.771599,47.483936 70.345749,47.848511 
	C70.248535,47.669884 70.348557,47.360577 70.704636,46.966686 
z"/>
<path fill="#2E2E2F" opacity="1.000000" stroke="none" 
	d="
M68.264740,72.181686 
	C68.342224,70.267059 68.661812,68.518097 68.991013,66.384338 
	C69.498436,65.737297 69.996262,65.475044 70.757339,65.110565 
	C71.016251,67.046967 71.011925,69.085579 71.005051,71.561165 
	C70.497841,72.563171 69.993187,73.128204 69.244110,73.847076 
	C68.835419,73.449722 68.671135,72.898537 68.264740,72.181686 
z"/>
<path fill="#2F2F31" opacity="1.000000" stroke="none" 
	d="
M68.389938,62.002876 
	C68.015778,59.957947 68.010933,57.911266 68.014130,55.425228 
	C68.334969,54.520386 68.647766,54.054901 68.980133,53.293991 
	C69.500168,53.560745 70.000641,54.122921 70.743301,54.837879 
	C70.988342,57.036732 70.991211,59.082798 70.984444,61.567204 
	C70.236298,62.004066 69.497787,62.002594 68.389938,62.002876 
z"/>
<path fill="#FFFFFF" opacity="1.000000" stroke="none" 
	d="
M260.215912,89.997025 
	C254.788361,88.854561 257.349976,84.864052 257.178802,82.221146 
	C257.048706,80.211967 258.332062,76.452431 259.350494,76.322403 
	C263.217804,75.828659 267.820984,74.561623 270.536896,79.083557 
	C273.136169,83.411293 269.750092,89.594727 264.647400,89.983398 
	C263.326599,90.084007 261.991669,89.999115 260.215912,89.997025 
z"/>
<path fill="#FFFFFF" opacity="1.000000" stroke="none" 
	d="
M356.805756,80.483368 
	C360.758118,90.219093 359.644073,100.591614 353.981537,105.391350 
	C352.377777,106.750771 350.032867,107.561058 347.910034,107.913620 
	C343.795776,108.596909 341.818878,106.689285 341.949799,102.317162 
	C342.143890,95.838341 341.999542,89.349388 342.000092,82.864754 
	C342.000702,75.949722 345.857971,73.661392 352.374939,76.872108 
	C353.947113,77.646660 355.222015,79.024521 356.805756,80.483368 
z"/>
<path fill="#FFFFFF" opacity="1.000000" stroke="none" 
	d="
M211.971405,27.953976 
	C209.324509,32.276161 204.496994,34.175018 200.198456,32.961700 
	C199.888000,32.874069 199.334518,32.785831 199.317444,32.646095 
	C198.852814,28.846905 198.040848,25.017117 198.263840,21.250277 
	C198.333069,20.080772 201.164719,18.286865 202.852036,18.137413 
	C210.175385,17.488750 213.226303,20.839655 211.971405,27.953976 
z"/>
<path fill="#FFFFFF" opacity="1.000000" stroke="none" 
	d="
M341.998840,40.549507 
	C340.742554,43.750164 340.087799,47.083523 338.104340,49.127762 
	C334.223785,53.127274 327.410797,51.477005 325.116577,46.316338 
	C321.999542,39.304726 322.119354,31.971884 324.073486,24.740976 
	C325.069397,21.055857 327.160858,17.989626 331.800140,17.967339 
	C336.449921,17.945000 339.647125,20.604210 340.583160,24.472803 
	C341.799896,29.501583 341.593658,34.874664 341.998840,40.549507 
z"/>
<path fill="#FFFFFF" opacity="1.000000" stroke="none" 
	d="
M229.457169,83.956360 
	C229.838120,88.249466 229.826874,92.238274 230.019241,96.217247 
	C230.416779,104.439819 225.781296,107.810654 221.082489,108.884003 
	C217.507736,109.700600 212.551453,105.037285 211.719696,99.037735 
	C210.994171,93.804596 211.475388,88.319756 212.057571,83.015724 
	C212.546478,78.561623 215.525589,75.118675 220.065475,75.190659 
	C224.838135,75.266319 228.074493,77.592323 229.457169,83.956360 
z"/>
<path fill="#FFFFFF" opacity="1.000000" stroke="none" 
	d="
M301.022736,93.148224 
	C302.457489,88.924065 303.866516,85.116707 305.411957,80.940781 
	C307.398651,86.393600 309.194702,91.323196 311.137787,96.656319 
	C307.340210,96.656319 303.833862,96.656319 300.045258,96.656319 
	C300.367798,95.608749 300.682404,94.586884 301.022736,93.148224 
z"/>
<path fill="#FFFFFF" opacity="1.000000" stroke="none" 
	d="
M387.337524,96.997932 
	C386.270264,96.476570 385.030090,95.759956 385.123199,95.466766 
	C386.553406,90.963501 388.157257,86.515396 390.164856,80.787292 
	C392.457214,86.881241 394.217743,91.561378 396.263458,96.999641 
	C393.172668,96.999641 390.478760,96.999641 387.337524,96.997932 
z"/>
<path fill="#FFFFFF" opacity="1.000000" stroke="none" 
	d="
M289.009094,34.962540 
	C287.397278,33.324032 286.000458,31.761000 285.082489,29.954601 
	C284.612701,29.030079 284.907318,27.661108 285.017609,26.508430 
	C285.334930,23.191919 283.402161,18.493170 289.091736,18.085112 
	C294.696564,17.683128 299.445923,21.157053 299.981415,25.357954 
	C300.585266,30.095438 297.502258,33.265289 291.646362,34.033516 
	C290.878754,34.134220 290.162445,34.626392 289.009094,34.962540 
z"/>
</svg>